PERFORMER "Noctes"
TITLE "Vexilla Regis Prodeunt Inferni"
FILE "NOCTES - Vexilla Regis Prodeunt Inferni.APE" WAVE
  TRACK 01 AUDIO
    TITLE "Mirrorland"
    PERFORMER "Noctes"
    INDEX 01 00:00:00
  TRACK 02 AUDIO
    TITLE "Frozen to Sleep"
    PERFORMER "Noctes"
    INDEX 01 04:41:45
  TRACK 03 AUDIO
    TITLE "Demonica"
    PERFORMER "Noctes"
    INDEX 01 08:20:10
  TRACK 04 AUDIO
    TITLE "A Demon From Within"
    PERFORMER "Noctes"
    INDEX 01 12:52:60
  TRACK 05 AUDIO
    TITLE "Vexilla Regis Prodeunt Inferni"
    PERFORMER "Noctes"
    INDEX 01 17:26:22
  TRACK 06 AUDIO
    TITLE "The Lost Garden"
    PERFORMER "Noctes"
    INDEX 01 21:39:60
  TRACK 07 AUDIO
    TITLE "Darkside Whispers"
    PERFORMER "Noctes"
    INDEX 01 26:30:62
  TRACK 08 AUDIO
    TITLE "The Dream Dominion"
    PERFORMER "Noctes"
    INDEX 01 30:59:05
  TRACK 09 AUDIO
    TITLE "Persephone"
    PERFORMER "Noctes"
    INDEX 01 35:43:22
  TRACK 10 AUDIO
    TITLE "Carnifex"
    PERFORMER "Noctes"
    INDEX 01 41:16:55
  TRACK 11 AUDIO
    TITLE "De Profundis Clamavi"
    PERFORMER "Noctes"
    INDEX 01 45:34:37
